<svg xmlns="http://www.w3.org/2000/svg" xmlns:xlink="http://www.w3.org/1999/xlink" version="1.1" id="Layer_1" x="0px" y="0px" width="50px" height="50px" viewBox="0 0 50 50" enable-background="new 0 0 50 50" xml:space="preserve">
<g>
	<path fill="#000000" d="M20.834,25.431c1.376-0.961,2.777-1.893,4.174-2.822c2.001-1.33,4.064-2.699,6.092-4.203   c0.072-0.887,0.273-4.822-1.623-5.205c0,0-3.99,2.846-7.587,5.36C21.89,18.561,22.469,23.187,20.834,25.431z"/>
	<path fill="#000000" d="M37.634,13.212c0.022-0.023,0.046-0.049,0.069-0.075c1.387-0.807,4.82-2.721,7.252-3.375   c0,0,1.43-5.069,0.641-7.951c-0.439-1.604-0.439-1.604-0.439-1.604s-4.123,5.389-6.771,7.233c0,0-0.191,1.968-0.163,2.933   c-0.103-0.676-0.28-1.879-0.388-2.594c0,0-4.807,4.103-7.607,4.918c0,0,2.016,1.575,0.911,5.683c3.6-2.667,7.077-5.771,9.876-9.838   c-1.695,2.619-3.674,4.847-5.791,6.813c-1.76,1.577-3.617,2.998-5.527,4.379c0.078-0.03,0.177-0.068,0.273-0.104   c-0.041,0.03-0.084,0.06-0.127,0.09c-0.082,0.026-0.148,0.048-0.23,0.074c-1.058,0.765-2.127,1.521-3.205,2.282   c-1.127,0.799-3.481,2.189-6.202,4.207c-3.913,2.735-7.632,5.748-10.573,9.757c3.025-4.426,6.984-7.661,11.164-10.582   c0.092-0.404,0.756-3.474,0.057-5.921c-0.152-0.541-7.275,5.335-8.357,7.508c0,0-4.373,6.063-5.65,12.207   c-0.283-0.568-0.889-0.81-2.105-0.176c0,0,1.844-0.64,1.908,1.042c0.003,0.032,0,0.063,0,0.095   c-0.07,0.414-0.127,0.825-0.162,1.233c-0.006,0.009-0.012,0.021-0.016,0.032c-0.141-0.232-0.387-0.393-0.807-0.391   c-1.516,0.019-1.676,1.623-1.361,1.748c0,0,0.135-1.152,0.904-1.211c0.773-0.063,0.766,0.833,0.766,0.833l-0.002,0.259   C5.615,43.612,5.283,44.535,5,45.517c-0.32,1.111-0.601,2.584-0.601,2.584l0.88,1.693c0.228-1.227,0.775-4.503,0.775-4.503   c0.867-3.456,2.445-6.489,4.349-9.132C9.227,37.903,8.2,39.805,7.424,41.88c0.251-0.26,0.594-0.592,0.991-0.926   c1.888-1.995,8.782-6.835,10.03-7.367c0,0,3.463-3.103,8.754-5.748c0,0-2.494-0.549-8.877,0.842   c3.064-0.695,8.969-1.961,11.15-1.914c0,0,1.617-0.973,7.365-4.599c3.506-2.208,5.292-4.732,5.292-4.732s-2.378-0.882-11.573,2.054   c0.072-0.055,0.146-0.107,0.219-0.164c2.828-1.042,8.779-3.068,12.127-2.994c0,0,1.809-2.078,2.471-5.408   C45.373,10.923,43.151,10.271,37.634,13.212z M45.151,0.236l0.005,0.006c-0.055,0.166-0.119,0.321-0.18,0.485   C45.037,0.563,45.096,0.403,45.151,0.236z M42.146,6.784c0.697-1.17,1.341-2.417,1.92-3.749c-1.057,2.517-2.283,4.702-3.655,6.613   C41.018,8.749,41.602,7.804,42.146,6.784z"/>
</g>
</svg>