<svg xmlns="http://www.w3.org/2000/svg" xmlns:xlink="http://www.w3.org/1999/xlink" version="1.1" id="Layer_1" x="0px" y="0px" width="100.0px" height="100px" viewBox="0 0 512 512" enable-background="new 0 0 512 512" xml:space="preserve">
<path fill="#000000" d="M375.344,237.813C355.281,265.625,338,285.25,327.688,288c-41,11-95.313-24.375-119.688,0  c-36,36-48,96-48,96l-56.313,32C169.156,219.594,315.594,65.469,512,0c0,0-8.688,30-32,70.469  c-19.75,5.219-40.969,9.344-59.344,9.344c8.281,9.25,23.25,17.75,40.094,23.75c-5.5,9.313-11.156,18.813-17,28.5  c-22.125,6.313-46.906,11.75-68.063,11.75c9.125,10.188,26.344,19.406,45.25,25.406c-3.625,5.813-7.281,11.531-10.906,17.188  c-26.375,9.313-66.625,21.406-98.344,21.406C323.719,221.25,349.781,233.063,375.344,237.813z M384,288v160H64V128h176l64-64H0v448  h448V208L384,288z"/>
</svg>